<?xml version="1.0" encoding="utf-8"?>
<!-- Generator: Adobe Illustrator 21.1.0, SVG Export Plug-In . SVG Version: 6.00 Build 0)  -->
<svg version="1.1" id="Layer_1" xmlns="http://www.w3.org/2000/svg" xmlns:xlink="http://www.w3.org/1999/xlink" x="0px" y="0px"
	 viewBox="0 0 554.5 194.7" style="enable-background:new 0 0 554.5 194.7;" xml:space="preserve">
<g>
	<g>
		<g>
			<path d="M77.7-196.1c-0.8,0-1.5-0.7-1.5-1.5v-127.2c0-0.8,0.7-1.5,1.5-1.5s1.5,0.7,1.5,1.5v127.2
				C79.2-196.8,78.5-196.1,77.7-196.1z"/>
		</g>
		<g>
			<path d="M73-323.3c-0.6,0-1.1-0.3-1.3-0.8l-13.7-27.4H46.6l-13.7,27.4c-0.4,0.7-1.3,1-2,0.7c-0.7-0.4-1-1.3-0.7-2l14.1-28.2
				c0.3-0.5,0.8-0.8,1.3-0.8h13.2c0.6,0,1.1,0.3,1.3,0.8l14.1,28.2c0.4,0.7,0.1,1.6-0.7,2C73.4-323.4,73.2-323.3,73-323.3z"/>
		</g>
		<g>
			<path d="M26.8-196.1c-0.8,0-1.5-0.7-1.5-1.5v-127.2c0-0.8,0.7-1.5,1.5-1.5s1.5,0.7,1.5,1.5v127.2
				C28.3-196.8,27.7-196.1,26.8-196.1z"/>
		</g>
		<g>
			<path d="M58.8-301.4H45.7c-0.8,0-1.5-0.7-1.5-1.5v-9.3H41c-0.8,0-1.5-0.7-1.5-1.5v-9.6H26.8c-0.8,0-1.5-0.7-1.5-1.5
				s0.7-1.5,1.5-1.5H41c0.8,0,1.5,0.7,1.5,1.5v9.6h3.2c0.8,0,1.5,0.7,1.5,1.5v9.3h10.2v-9.3c0-0.8,0.7-1.5,1.5-1.5H62v-9.6
				c0-0.8,0.7-1.5,1.5-1.5h14.1c0.8,0,1.5,0.7,1.5,1.5s-0.7,1.5-1.5,1.5H65v9.6c0,0.8-0.7,1.5-1.5,1.5h-3.2v9.3
				C60.3-302.1,59.7-301.4,58.8-301.4z"/>
		</g>
		<g>
			<path d="M60.9-343.6H43.6c-0.8,0-1.5-0.7-1.5-1.5s0.7-1.5,1.5-1.5h17.2c0.8,0,1.5,0.7,1.5,1.5S61.7-343.6,60.9-343.6z"/>
		</g>
	</g>
	<g>
		<path d="M52.3-283.7c-0.8,0-1.5-0.7-1.5-1.5v-6.3c0-0.8,0.7-1.5,1.5-1.5s1.5,0.7,1.5,1.5v6.3C53.8-284.4,53.1-283.7,52.3-283.7z"
			/>
	</g>
	<g>
		<path d="M66.4-283.5c-0.8,0-1.5-0.7-1.5-1.5v-6.7c0-0.8,0.7-1.5,1.5-1.5s1.5,0.7,1.5,1.5v6.7C67.9-284.2,67.3-283.5,66.4-283.5z"
			/>
	</g>
	<g>
		<path d="M38.1-283.5c-0.8,0-1.5-0.7-1.5-1.5v-6.7c0-0.8,0.7-1.5,1.5-1.5s1.5,0.7,1.5,1.5v6.7C39.6-284.2,38.9-283.5,38.1-283.5z"
			/>
	</g>
	<g>
		<path d="M52.3-266.6c-0.8,0-1.5-0.7-1.5-1.5v-6.3c0-0.8,0.7-1.5,1.5-1.5s1.5,0.7,1.5,1.5v6.3C53.8-267.2,53.1-266.6,52.3-266.6z"
			/>
	</g>
	<g>
		<path d="M66.4-266.4c-0.8,0-1.5-0.7-1.5-1.5v-6.7c0-0.8,0.7-1.5,1.5-1.5s1.5,0.7,1.5,1.5v6.7C67.9-267.1,67.3-266.4,66.4-266.4z"
			/>
	</g>
	<g>
		<path d="M38.1-266.4c-0.8,0-1.5-0.7-1.5-1.5v-6.7c0-0.8,0.7-1.5,1.5-1.5s1.5,0.7,1.5,1.5v6.7C39.6-267.1,38.9-266.4,38.1-266.4z"
			/>
	</g>
	<g>
		<path d="M52.3-249.4c-0.8,0-1.5-0.7-1.5-1.5v-6.3c0-0.8,0.7-1.5,1.5-1.5s1.5,0.7,1.5,1.5v6.3C53.8-250.1,53.1-249.4,52.3-249.4z"
			/>
	</g>
	<g>
		<path d="M66.4-249.2c-0.8,0-1.5-0.7-1.5-1.5v-6.7c0-0.8,0.7-1.5,1.5-1.5s1.5,0.7,1.5,1.5v6.7C67.9-249.9,67.3-249.2,66.4-249.2z"
			/>
	</g>
	<g>
		<path d="M38.1-249.2c-0.8,0-1.5-0.7-1.5-1.5v-6.7c0-0.8,0.7-1.5,1.5-1.5s1.5,0.7,1.5,1.5v6.7C39.6-249.9,38.9-249.2,38.1-249.2z"
			/>
	</g>
	<g>
		<path d="M52.3-232.2c-0.8,0-1.5-0.7-1.5-1.5v-6.3c0-0.8,0.7-1.5,1.5-1.5s1.5,0.7,1.5,1.5v6.3C53.8-232.9,53.1-232.2,52.3-232.2z"
			/>
	</g>
	<g>
		<path d="M66.4-232c-0.8,0-1.5-0.7-1.5-1.5v-6.7c0-0.8,0.7-1.5,1.5-1.5s1.5,0.7,1.5,1.5v6.7C67.9-232.7,67.3-232,66.4-232z"/>
	</g>
	<g>
		<path d="M38.1-232c-0.8,0-1.5-0.7-1.5-1.5v-6.7c0-0.8,0.7-1.5,1.5-1.5s1.5,0.7,1.5,1.5v6.7C39.6-232.7,38.9-232,38.1-232z"/>
	</g>
	<g>
		<path d="M52.3-215.1c-0.8,0-1.5-0.7-1.5-1.5v-6.3c0-0.8,0.7-1.5,1.5-1.5s1.5,0.7,1.5,1.5v6.3C53.8-215.7,53.1-215.1,52.3-215.1z"
			/>
	</g>
	<g>
		<path d="M66.4-214.9c-0.8,0-1.5-0.7-1.5-1.5v-6.7c0-0.8,0.7-1.5,1.5-1.5s1.5,0.7,1.5,1.5v6.7C67.9-215.6,67.3-214.9,66.4-214.9z"
			/>
	</g>
	<g>
		<path d="M38.1-214.9c-0.8,0-1.5-0.7-1.5-1.5v-6.7c0-0.8,0.7-1.5,1.5-1.5s1.5,0.7,1.5,1.5v6.7C39.6-215.6,38.9-214.9,38.1-214.9z"
			/>
	</g>
</g>
<g>
	<g>
		<g>
			<path d="M246.8,78.2c-0.8,0-1.5-0.7-1.5-1.5v-47c0-0.8,0.7-1.5,1.5-1.5s1.5,0.7,1.5,1.5v47C248.3,77.6,247.7,78.2,246.8,78.2z"/>
		</g>
		<g>
			<path d="M242.1,31.2c-0.6,0-1.1-0.3-1.3-0.8L227.1,3h-11.3l-13.7,27.4c-0.4,0.7-1.3,1-2,0.7c-0.7-0.4-1-1.3-0.7-2l14.1-28.2
				c0.3-0.5,0.8-0.8,1.3-0.8H228c0.6,0,1.1,0.3,1.3,0.8l14.1,28.2c0.4,0.7,0.1,1.6-0.7,2C242.6,31.2,242.4,31.2,242.1,31.2z"/>
		</g>
		<g>
			<path d="M196,103.2c-0.8,0-1.5-0.7-1.5-1.5v-72c0-0.8,0.7-1.5,1.5-1.5s1.5,0.7,1.5,1.5v72C197.5,102.5,196.8,103.2,196,103.2z"/>
		</g>
		<g>
			<path d="M228,53.2h-13.2c-0.8,0-1.5-0.7-1.5-1.5v-9.3h-3.2c-0.8,0-1.5-0.7-1.5-1.5v-9.6H196c-0.8,0-1.5-0.7-1.5-1.5
				s0.7-1.5,1.5-1.5h14.1c0.8,0,1.5,0.7,1.5,1.5v9.6h3.2c0.8,0,1.5,0.7,1.5,1.5v9.3h10.2v-9.3c0-0.8,0.7-1.5,1.5-1.5h3.2v-9.6
				c0-0.8,0.7-1.5,1.5-1.5h14.1c0.8,0,1.5,0.7,1.5,1.5s-0.7,1.5-1.5,1.5h-12.6v9.6c0,0.8-0.7,1.5-1.5,1.5h-3.2v9.3
				C229.5,52.5,228.8,53.2,228,53.2z"/>
		</g>
		<g>
			<path d="M230,10.9h-17.2c-0.8,0-1.5-0.7-1.5-1.5s0.7-1.5,1.5-1.5H230c0.8,0,1.5,0.7,1.5,1.5S230.9,10.9,230,10.9z"/>
		</g>
	</g>
	<g>
		<path d="M221.4,70.8c-0.8,0-1.5-0.7-1.5-1.5V63c0-0.8,0.7-1.5,1.5-1.5s1.5,0.7,1.5,1.5v6.3C222.9,70.2,222.3,70.8,221.4,70.8z"/>
	</g>
	<g>
		<path d="M235.6,71c-0.8,0-1.5-0.7-1.5-1.5v-6.7c0-0.8,0.7-1.5,1.5-1.5s1.5,0.7,1.5,1.5v6.7C237.1,70.3,236.4,71,235.6,71z"/>
	</g>
	<g>
		<path d="M207.2,71c-0.8,0-1.5-0.7-1.5-1.5v-6.7c0-0.8,0.7-1.5,1.5-1.5s1.5,0.7,1.5,1.5v6.7C208.7,70.3,208.1,71,207.2,71z"/>
	</g>
	<g>
		<path d="M221.4,88c-0.8,0-1.5-0.7-1.5-1.5v-6.3c0-0.8,0.7-1.5,1.5-1.5s1.5,0.7,1.5,1.5v6.3C222.9,87.3,222.3,88,221.4,88z"/>
	</g>
	<g>
		<path d="M235.6,82.9c-0.8,0-1.5-0.7-1.5-1.5V80c0-0.8,0.7-1.5,1.5-1.5s1.5,0.7,1.5,1.5v1.4C237.1,82.2,236.4,82.9,235.6,82.9z"/>
	</g>
	<g>
		<path d="M207.2,88.2c-0.8,0-1.5-0.7-1.5-1.5V80c0-0.8,0.7-1.5,1.5-1.5s1.5,0.7,1.5,1.5v6.7C208.7,87.5,208.1,88.2,207.2,88.2z"/>
	</g>
</g>
<g>
	<path d="M689.9-208.8C689.9-208.8,690-208.9,689.9-208.8c0.1-0.2,0.1-0.3,0.1-0.3c0,0,0,0,0,0c0-0.1,0-0.2,0-0.3c0,0,0,0,0,0
		s0,0,0,0c0,0,0-0.1,0-0.1c0-0.1,0-0.2,0-0.2c0,0,0-0.1,0-0.1c0-0.1,0-0.1-0.1-0.2c0,0,0-0.1-0.1-0.1c0-0.1-0.1-0.1-0.1-0.2
		c0,0,0-0.1-0.1-0.1c0,0-0.1-0.1-0.1-0.1c0,0,0,0,0,0c-0.2-0.2-15.4-12.1-37.6-19.6c0,0,0,0,0,0c0,0-0.1,0-0.1,0
		c-0.1,0-0.1-0.1-0.2-0.1c0,0-0.1,0-0.1,0c0,0-0.1,0-0.1,0c0,0-0.1,0-0.1,0c-10.1-3.4-21.6-5.8-33.8-5.8
		c-27.4,0-51.1,12.1-63.7,19.9c-2.6-6.4-3.8-14.1-2.2-23.8c3.5-20.7,20-45.3,48.9-73.1c0.4-0.4,0.6-1.1,0.4-1.6
		c-0.2-0.6-0.8-0.9-1.4-0.9h-53.7c-0.5,0-1,0.3-1.3,0.8c-0.3,0.5-0.3,1,0,1.5c0.3,0.4,23.9,44.4-92.6,114.7c-0.6,0.3-0.9,1-0.7,1.7
		s0.8,1.1,1.4,1.1H565h0.1h18.6c0,0,0,0,0,0c0,0,0,0,0,0h67.3c0,0,0,0,0,0c0,0,0,0,0,0h18.7c0.2,0,0.4,0,0.6-0.1
		c9.5-4.1,18.7-11.8,19.1-12.1c0,0,0,0,0,0c0,0,0.1-0.1,0.1-0.1c0,0,0.1-0.1,0.1-0.1C689.9-208.7,689.9-208.8,689.9-208.8z
		 M683.9-211h-13.7c-1.1-2.1-4.2-7.5-10.1-13C671-219.3,679.4-214.1,683.9-211z M641.8-199.1c4.6-3.8,7.1-7.3,8-8.9h15.7
		c-2.9,2.5-7.9,6.3-14.7,8.9H641.8z M626-199.1c2.1-3.9,2.9-7.1,3.2-8.9h17c-1.6,2.1-4.6,5.6-9.4,8.9H626z M612.3-199.1
		c-2.2-3.8-3.2-7-3.6-8.9h17.3c-0.4,1.8-1.4,5.1-3.6,8.9H612.3z M598.1-199.1c-4.8-3.3-7.8-6.7-9.4-8.9h17c0.3,1.7,1.2,4.9,3.2,8.9
		H598.1z M584.1-199.1c-6.8-2.6-11.8-6.4-14.7-8.9h15.7c0.9,1.5,3.4,5.1,8,8.9H584.1z M565.8-199.1c-0.7-0.8-1.5-1.6-2.3-2.5
		c-1.7-1.9-3.5-4-5.1-6.4h6.6c1.3,1.4,5.5,5.4,11.9,8.9H565.8z M639.5-227.6c4.2,6.1,6.6,13.3,7.5,16.5h-17.7
		c-0.2-2.9-0.9-9.8-2.4-16.5H639.5z M623.9-227.6c1.5,6.5,2.2,13.5,2.4,16.5h-17.7c0.2-3.1,0.9-10.1,2.4-16.5H623.9z M605.6-211
		h-17.7c0.9-3.3,3.3-10.4,7.5-16.5H608C606.5-220.8,605.8-213.9,605.6-211z M584.2-227.6h7.6c-4.1,6.7-6.3,13.8-7,16.5h-16.6
		C570.2-214.6,575.3-221.9,584.2-227.6z M650.1-211c-0.7-2.8-2.9-9.9-7-16.5h7.6c8.9,5.7,14,13,16.1,16.5H650.1z M640.3-230.6h-45.9
		c7.2-1.7,15-2.8,23-2.8C625.4-233.4,633.1-232.3,640.3-230.6z M555-213.7c4.9-3.1,11.7-6.9,19.8-10.4c-5.9,5.5-9.1,11-10.2,13.1
		h-8.2c-0.2-0.4-0.4-0.8-0.7-1.1C555.5-212.7,555.3-213.2,555-213.7z M545.3-282.4c6.5-15.7,4.3-26.1,2.8-30.5h47.7
		c-27.7,27.2-43.6,51.4-47.1,72.1c-1.9,11.1-0.1,19.9,3.1,27c0,0,0,0.1,0,0.1c0.8,1.8,1.6,3.4,2.6,4.9c0,0.1,0.1,0.1,0.1,0.2
		c1.7,2.8,3.6,5.2,5.5,7.4c0.1,0.1,0.2,0.3,0.3,0.4c0.5,0.6,1,1.1,1.4,1.6H458C505-228.1,534.4-256.1,545.3-282.4z M669.6-199.1H658
		c6.4-3.5,10.6-7.5,11.9-8.9h14.3C680.8-205.5,675.2-201.6,669.6-199.1z"/>
	<path d="M513.8-225.1h23.9c0.8,0,1.5-0.7,1.5-1.5s-0.7-1.5-1.5-1.5h-23.9c-0.8,0-1.5,0.7-1.5,1.5S513-225.1,513.8-225.1z"/>
	<path d="M523.6-233.4H538c0.8,0,1.5-0.7,1.5-1.5s-0.7-1.5-1.5-1.5h-14.3c-0.8,0-1.5,0.7-1.5,1.5S522.8-233.4,523.6-233.4z"/>
	<path d="M504-216.7h35.2c0.8,0,1.5-0.7,1.5-1.5s-0.7-1.5-1.5-1.5H504c-0.8,0-1.5,0.7-1.5,1.5S503.2-216.7,504-216.7z"/>
	<path d="M542.4-211h-51c-0.8,0-1.5,0.7-1.5,1.5s0.7,1.5,1.5,1.5h51c0.8,0,1.5-0.7,1.5-1.5S543.2-211,542.4-211z"/>
	<path d="M559-304.1h20.7c0.8,0,1.5-0.7,1.5-1.5s-0.7-1.5-1.5-1.5H559c-0.8,0-1.5,0.7-1.5,1.5S558.1-304.1,559-304.1z"/>
	<path d="M558.7-295.5h13c0.8,0,1.5-0.7,1.5-1.5s-0.7-1.5-1.5-1.5h-13c-0.8,0-1.5,0.7-1.5,1.5S557.9-295.5,558.7-295.5z"/>
	<path d="M556.8-286.9h7.6c0.8,0,1.5-0.7,1.5-1.5s-0.7-1.5-1.5-1.5h-7.6c-0.8,0-1.5,0.7-1.5,1.5S556-286.9,556.8-286.9z"/>
</g>
<g>
	<path d="M536.9,182.1C536.9,182,536.9,182,536.9,182.1c0.1-0.2,0.1-0.3,0.1-0.3c0,0,0,0,0,0c0-0.1,0-0.2,0-0.3c0,0,0,0,0,0s0,0,0,0
		c0,0,0-0.1,0-0.1c0-0.1,0-0.2,0-0.2c0,0,0-0.1,0-0.1c0-0.1,0-0.1-0.1-0.2c0,0,0-0.1-0.1-0.1c0-0.1-0.1-0.1-0.1-0.2
		c0,0,0-0.1-0.1-0.1c0,0-0.1-0.1-0.1-0.1c0,0,0,0,0,0c-0.2-0.2-15.4-12.1-37.6-19.6c0,0,0,0,0,0c0,0-0.1,0-0.1,0
		c-0.1,0-0.1-0.1-0.2-0.1c0,0-0.1,0-0.1,0c0,0-0.1,0-0.1,0c0,0-0.1,0-0.1,0c-10.1-3.4-21.6-5.8-33.8-5.8
		c-27.4,0-51.1,12.1-63.7,19.9c-2.6-6.4-3.8-14.1-2.2-23.8c3.5-20.7,20-45.3,48.9-73.1c0.4-0.4,0.6-1.1,0.4-1.6
		c-0.2-0.6-0.8-0.9-1.4-0.9h-53.7c-0.5,0-1,0.3-1.3,0.8c-0.3,0.5-0.3,1,0,1.5c0.3,0.4,23.9,44.4-92.6,114.7c-0.6,0.3-0.9,1-0.7,1.7
		s0.8,1.1,1.4,1.1H412h0.1h18.6c0,0,0,0,0,0c0,0,0,0,0,0h67.3c0,0,0,0,0,0c0,0,0,0,0,0h18.7c0.2,0,0.4,0,0.6-0.1
		c9.5-4.1,18.7-11.8,19.1-12.1c0,0,0,0,0,0c0,0,0.1-0.1,0.1-0.1c0,0,0.1-0.1,0.1-0.1C536.8,182.2,536.8,182.1,536.9,182.1z
		 M530.9,179.9h-13.7c-1.1-2.1-4.2-7.5-10.1-13C518,171.5,526.4,176.8,530.9,179.9z M488.7,191.7c4.6-3.8,7.1-7.3,8-8.9h15.7
		c-2.9,2.5-7.9,6.3-14.7,8.9H488.7z M472.9,191.7c2.1-3.9,2.9-7.1,3.2-8.9h17c-1.6,2.1-4.6,5.6-9.4,8.9H472.9z M459.3,191.7
		c-2.2-3.8-3.2-7-3.6-8.9h17.3c-0.4,1.8-1.4,5.1-3.6,8.9H459.3z M445,191.7c-4.8-3.3-7.8-6.7-9.4-8.9h17c0.3,1.7,1.2,4.9,3.2,8.9
		H445z M431,191.7c-6.8-2.6-11.8-6.4-14.7-8.9H432c0.9,1.5,3.4,5.1,8,8.9H431z M412.7,191.7c-0.7-0.8-1.5-1.6-2.3-2.5
		c-1.7-1.9-3.5-4-5.1-6.4h6.6c1.3,1.4,5.5,5.4,11.9,8.9H412.7z M486.4,163.3c4.2,6.1,6.6,13.3,7.5,16.5h-17.7
		c-0.2-2.9-0.9-9.8-2.4-16.5H486.4z M470.8,163.3c1.5,6.5,2.2,13.5,2.4,16.5h-17.7c0.2-3.1,0.9-10.1,2.4-16.5H470.8z M452.5,179.9
		h-17.7c0.9-3.3,3.3-10.4,7.5-16.5h12.6C453.4,170,452.8,177,452.5,179.9z M431.2,163.3h7.6c-4.1,6.7-6.3,13.8-7,16.5h-16.6
		C417.2,176.3,422.2,169,431.2,163.3z M497.1,179.9c-0.7-2.8-2.9-9.9-7-16.5h7.6c8.9,5.7,14,13,16.1,16.5H497.1z M487.3,160.3h-45.9
		c7.2-1.7,15-2.8,23-2.8C472.4,157.5,480.1,158.6,487.3,160.3z M402,177.2c4.9-3.1,11.7-6.9,19.8-10.4c-5.9,5.5-9.1,11-10.2,13.1
		h-8.2c-0.2-0.4-0.4-0.8-0.7-1.1C402.5,178.2,402.2,177.7,402,177.2z M392.2,108.5c6.5-15.7,4.3-26.1,2.8-30.5h47.7
		c-27.7,27.2-43.6,51.4-47.1,72.1c-1.9,11.1-0.1,19.9,3.1,27c0,0,0,0.1,0,0.1c0.8,1.8,1.6,3.4,2.6,4.9c0,0.1,0.1,0.1,0.1,0.2
		c1.7,2.8,3.6,5.2,5.5,7.4c0.1,0.1,0.2,0.3,0.3,0.4c0.5,0.6,1,1.1,1.4,1.6H305C352,162.8,381.3,134.8,392.2,108.5z M516.5,191.7
		h-11.6c6.4-3.5,10.6-7.5,11.9-8.9h14.3C527.7,185.4,522.1,189.3,516.5,191.7z"/>
	<path d="M360.8,165.8h23.9c0.8,0,1.5-0.7,1.5-1.5s-0.7-1.5-1.5-1.5h-23.9c-0.8,0-1.5,0.7-1.5,1.5S360,165.8,360.8,165.8z"/>
	<path d="M370.6,157.5h14.3c0.8,0,1.5-0.7,1.5-1.5s-0.7-1.5-1.5-1.5h-14.3c-0.8,0-1.5,0.7-1.5,1.5S369.7,157.5,370.6,157.5z"/>
	<path d="M350.9,174.2h35.2c0.8,0,1.5-0.7,1.5-1.5s-0.7-1.5-1.5-1.5h-35.2c-0.8,0-1.5,0.7-1.5,1.5S350.1,174.2,350.9,174.2z"/>
	<path d="M389.3,179.9h-51c-0.8,0-1.5,0.7-1.5,1.5s0.7,1.5,1.5,1.5h51c0.8,0,1.5-0.7,1.5-1.5S390.2,179.9,389.3,179.9z"/>
	<path d="M405.9,86.8h20.7c0.8,0,1.5-0.7,1.5-1.5s-0.7-1.5-1.5-1.5h-20.7c-0.8,0-1.5,0.7-1.5,1.5S405.1,86.8,405.9,86.8z"/>
	<path d="M405.7,95.4h13c0.8,0,1.5-0.7,1.5-1.5s-0.7-1.5-1.5-1.5h-13c-0.8,0-1.5,0.7-1.5,1.5S404.8,95.4,405.7,95.4z"/>
	<path d="M403.7,104h7.6c0.8,0,1.5-0.7,1.5-1.5s-0.7-1.5-1.5-1.5h-7.6c-0.8,0-1.5,0.7-1.5,1.5S402.9,104,403.7,104z"/>
</g>
<g>
	<path d="M294.3-314.2c-0.8,0-1.5,0.7-1.5,1.5v3.1h-8.5v-3.1c0-0.8-0.7-1.5-1.5-1.5s-1.5,0.7-1.5,1.5v3.1h-8.5v-3.1
		c0-0.8-0.7-1.5-1.5-1.5s-1.5,0.7-1.5,1.5v4.6v53.8h-5.2v-2.7c0-0.8-0.7-1.5-1.5-1.5s-1.5,0.7-1.5,1.5v2.7h-5.2v-2.3
		c0-0.8-0.7-1.5-1.5-1.5s-1.5,0.7-1.5,1.5v2.3h-5.2v-2.7c0-0.8-0.7-1.5-1.5-1.5s-1.5,0.7-1.5,1.5v2.7h-5.2v-9.1h3
		c0.8,0,1.5-0.7,1.5-1.5s-0.7-1.5-1.5-1.5h-3v-3.8c0-0.8-0.7-1.5-1.5-1.5s-1.5,0.7-1.5,1.5v3.8h-3c-0.8,0-1.5,0.7-1.5,1.5
		s0.7,1.5,1.5,1.5h3v9.1h-5.2v-2.7c0-0.8-0.7-1.5-1.5-1.5s-1.5,0.7-1.5,1.5v2.7h-5.2v-2.3c0-0.8-0.7-1.5-1.5-1.5s-1.5,0.7-1.5,1.5
		v2.3h-5.2v-2.7c0-0.8-0.7-1.5-1.5-1.5s-1.5,0.7-1.5,1.5v2.7h-5.2v-53.8v-4.6c0-0.8-0.7-1.5-1.5-1.5s-1.5,0.7-1.5,1.5v3.1h-8.5v-3.1
		c0-0.8-0.7-1.5-1.5-1.5s-1.5,0.7-1.5,1.5v3.1H184v-3.1c0-0.8-0.7-1.5-1.5-1.5s-1.5,0.7-1.5,1.5v4.6v110.5c0,0.8,0.7,1.5,1.5,1.5
		h22.9h9.7h9.1h9.7h9.1h9.7h9.1h9.7h22.9c0.8,0,1.5-0.7,1.5-1.5v-110.5v-4.6C295.8-313.6,295.2-314.2,294.3-314.2z M184-306.6h19.9
		v53.8v53.8H184V-306.6z M206.9-251.4h63v52.3h-6.7v-14.5c0-3.3-2.7-6-6-6c-3.3,0-6,2.7-6,6v14.5h-6.7v-14.5c0-3.3-2.7-6-6-6
		s-6,2.7-6,6v14.5h-6.7v-14.5c0-3.3-2.7-6-6-6s-6,2.7-6,6v14.5h-6.7V-251.4z M216.6-199.1v-14.5c0-1.7,1.4-3,3-3s3,1.4,3,3v14.5
		H216.6z M235.4-199.1v-14.5c0-1.7,1.4-3,3-3s3,1.4,3,3v14.5H235.4z M254.1-199.1v-14.5c0-1.7,1.4-3,3-3c1.7,0,3,1.4,3,3v14.5H254.1
		z M292.8-199.1h-19.9v-53.8v-53.8h19.9V-199.1z"/>
	<path d="M197.1-257.7c0.8,0,1.5-0.7,1.5-1.5v-11c0-2.5-2.1-4.6-4.6-4.6s-4.6,2.1-4.6,4.6v11c0,0.8,0.7,1.5,1.5,1.5H197.1z
		 M192.3-270.2c0-0.9,0.7-1.6,1.6-1.6s1.6,0.7,1.6,1.6v9.5h-3.2V-270.2z"/>
	<path d="M197.1-230c0.8,0,1.5-0.7,1.5-1.5v-11c0-2.5-2.1-4.6-4.6-4.6s-4.6,2.1-4.6,4.6v11c0,0.8,0.7,1.5,1.5,1.5H197.1z
		 M192.3-242.5c0-0.9,0.7-1.6,1.6-1.6s1.6,0.7,1.6,1.6v9.5h-3.2V-242.5z"/>
	<path d="M216.5-230h6.2c0.8,0,1.5-0.7,1.5-1.5v-11c0-2.5-2.1-4.6-4.6-4.6s-4.6,2.1-4.6,4.6v11C215-230.7,215.7-230,216.5-230z
		 M218-242.5c0-0.9,0.7-1.6,1.6-1.6s1.6,0.7,1.6,1.6v9.5H218V-242.5z"/>
	<path d="M235.3-230h6.2c0.8,0,1.5-0.7,1.5-1.5v-11c0-2.5-2.1-4.6-4.6-4.6s-4.6,2.1-4.6,4.6v11C233.8-230.7,234.5-230,235.3-230z
		 M236.8-242.5c0-0.9,0.7-1.6,1.6-1.6s1.6,0.7,1.6,1.6v9.5h-3.2V-242.5z"/>
	<path d="M254.1-230h6.2c0.8,0,1.5-0.7,1.5-1.5v-11c0-2.5-2.1-4.6-4.6-4.6c-2.5,0-4.6,2.1-4.6,4.6v11
		C252.6-230.7,253.2-230,254.1-230z M255.6-242.5c0-0.9,0.7-1.6,1.6-1.6s1.6,0.7,1.6,1.6v9.5h-3.2V-242.5z"/>
	<path d="M286-257.7c0.8,0,1.5-0.7,1.5-1.5v-11c0-2.5-2.1-4.6-4.6-4.6s-4.6,2.1-4.6,4.6v11c0,0.8,0.7,1.5,1.5,1.5H286z M281.2-270.2
		c0-0.9,0.7-1.6,1.6-1.6s1.6,0.7,1.6,1.6v9.5h-3.2V-270.2z"/>
	<path d="M190.8-285.4h6.2c0.8,0,1.5-0.7,1.5-1.5v-11c0-2.5-2.1-4.6-4.6-4.6s-4.6,2.1-4.6,4.6v11C189.3-286,190-285.4,190.8-285.4z
		 M192.3-297.9c0-0.9,0.7-1.6,1.6-1.6s1.6,0.7,1.6,1.6v9.5h-3.2V-297.9z"/>
	<path d="M278.2-297.9v11c0,0.8,0.7,1.5,1.5,1.5h6.2c0.8,0,1.5-0.7,1.5-1.5v-11c0-2.5-2.1-4.6-4.6-4.6S278.2-300.4,278.2-297.9z
		 M284.5-297.9v9.5h-3.2v-9.5c0-0.9,0.7-1.6,1.6-1.6S284.5-298.8,284.5-297.9z"/>
	<path d="M286-230c0.8,0,1.5-0.7,1.5-1.5v-11c0-2.5-2.1-4.6-4.6-4.6s-4.6,2.1-4.6,4.6v11c0,0.8,0.7,1.5,1.5,1.5H286z M281.2-242.5
		c0-0.9,0.7-1.6,1.6-1.6s1.6,0.7,1.6,1.6v9.5h-3.2V-242.5z"/>
	<path d="M200.1-254.4h-12.2c-0.8,0-1.5,0.7-1.5,1.5s0.7,1.5,1.5,1.5h12.2c0.8,0,1.5-0.7,1.5-1.5S200.9-254.4,200.1-254.4z"/>
	<path d="M200.1-226.8h-12.2c-0.8,0-1.5,0.7-1.5,1.5s0.7,1.5,1.5,1.5h12.2c0.8,0,1.5-0.7,1.5-1.5S200.9-226.8,200.1-226.8z"/>
	<path d="M200.1-282h-12.2c-0.8,0-1.5,0.7-1.5,1.5s0.7,1.5,1.5,1.5h12.2c0.8,0,1.5-0.7,1.5-1.5S200.9-282,200.1-282z"/>
	<path d="M289-254.4h-12.2c-0.8,0-1.5,0.7-1.5,1.5s0.7,1.5,1.5,1.5H289c0.8,0,1.5-0.7,1.5-1.5S289.8-254.4,289-254.4z"/>
	<path d="M289-226.8h-12.2c-0.8,0-1.5,0.7-1.5,1.5s0.7,1.5,1.5,1.5H289c0.8,0,1.5-0.7,1.5-1.5S289.8-226.8,289-226.8z"/>
	<path d="M275.3-280.5c0,0.8,0.7,1.5,1.5,1.5H289c0.8,0,1.5-0.7,1.5-1.5s-0.7-1.5-1.5-1.5h-12.2C275.9-282,275.3-281.3,275.3-280.5z
		"/>
</g>
<g>
	<path d="M17,183.3 M17,163 M17,183.3v9.8c0,0.8,0.7,1.5,1.5,1.5h22.9h9.7h9.1h9.7H79h9.7h9.1h9.7h22.9c0.8,0,1.5-0.7,1.5-1.5V82.7
		v-4.6c0-0.8-0.7-1.5-1.5-1.5s-1.5,0.7-1.5,1.5v3.1h-8.5v-3.1c0-0.8-0.7-1.5-1.5-1.5s-1.5,0.7-1.5,1.5v3.1h-8.5v-3.1
		c0-0.8-0.7-1.5-1.5-1.5s-1.5,0.7-1.5,1.5v4.6v53.8h-5.2v-2.7c0-0.8-0.7-1.5-1.5-1.5s-1.5,0.7-1.5,1.5v2.7h-5.2v-2.3
		c0-0.8-0.7-1.5-1.5-1.5s-1.5,0.7-1.5,1.5v2.3h-5.2v-2.7c0-0.8-0.7-1.5-1.5-1.5s-1.5,0.7-1.5,1.5v2.7H76v-9.1h3
		c0.8,0,1.5-0.7,1.5-1.5s-0.7-1.5-1.5-1.5h-3v-3.8c0-0.8-0.7-1.5-1.5-1.5s-1.5,0.7-1.5,1.5v3.8h-3c-0.8,0-1.5,0.7-1.5,1.5
		s0.7,1.5,1.5,1.5h3v9.1h-5.2v-2.7c0-0.8-0.7-1.5-1.5-1.5s-1.5,0.7-1.5,1.5v2.7h-5.2v-2.3c0-0.8-0.7-1.5-1.5-1.5s-1.5,0.7-1.5,1.5
		v2.3h-5.2v-2.7c0-0.8-0.7-1.5-1.5-1.5s-1.5,0.7-1.5,1.5v2.7H43V82.7v-4.6c0-0.8-0.7-1.5-1.5-1.5S40,77.3,40,78.1v3.1h-8.5v-3.1
		c0-0.8-0.7-1.5-1.5-1.5s-1.5,0.7-1.5,1.5v3.1H20v-3.1c0-0.8-0.7-1.5-1.5-1.5S17,77.3,17,78.1v4.6V163l3,1.9V84.2H40v53.8v53.8H20
		v-9.2L17,183.3z M20,182.5 M43,139.4h63v52.3h-6.7v-14.5c0-3.3-2.7-6-6-6s-6,2.7-6,6v14.5h-6.7v-14.5c0-3.3-2.7-6-6-6s-6,2.7-6,6
		v14.5h-6.7v-14.5c0-3.3-2.7-6-6-6s-6,2.7-6,6v14.5H43V139.4z M52.7,191.7v-14.5c0-1.7,1.4-3,3-3s3,1.4,3,3v14.5H52.7z M71.4,191.7
		v-14.5c0-1.7,1.4-3,3-3s3,1.4,3,3v14.5H71.4z M90.2,191.7v-14.5c0-1.7,1.4-3,3-3s3,1.4,3,3v14.5H90.2z M128.9,191.7h-19.9v-53.8
		V84.2h19.9V191.7z"/>
	<path d="M33.1,133.1c0.8,0,1.5-0.7,1.5-1.5v-11c0-2.5-2.1-4.6-4.6-4.6s-4.6,2.1-4.6,4.6v11c0,0.8,0.7,1.5,1.5,1.5H33.1z
		 M28.4,120.6c0-0.9,0.7-1.6,1.6-1.6s1.6,0.7,1.6,1.6v9.5h-3.2V120.6z"/>
	<path d="M33.1,160.8c0.8,0,1.5-0.7,1.5-1.5v-11c0-2.5-2.1-4.6-4.6-4.6s-4.6,2.1-4.6,4.6v11c0,0.8,0.7,1.5,1.5,1.5H33.1z
		 M28.4,148.3c0-0.9,0.7-1.6,1.6-1.6s1.6,0.7,1.6,1.6v9.5h-3.2V148.3z"/>
	<path d="M52.6,160.8h6.2c0.8,0,1.5-0.7,1.5-1.5v-11c0-2.5-2.1-4.6-4.6-4.6s-4.6,2.1-4.6,4.6v11C51.1,160.2,51.7,160.8,52.6,160.8z
		 M54.1,148.3c0-0.9,0.7-1.6,1.6-1.6s1.6,0.7,1.6,1.6v9.5h-3.2V148.3z"/>
	<path d="M71.3,160.8h6.2c0.8,0,1.5-0.7,1.5-1.5v-11c0-2.5-2.1-4.6-4.6-4.6s-4.6,2.1-4.6,4.6v11C69.8,160.2,70.5,160.8,71.3,160.8z
		 M72.8,148.3c0-0.9,0.7-1.6,1.6-1.6s1.6,0.7,1.6,1.6v9.5h-3.2V148.3z"/>
	<path d="M90.1,160.8h6.2c0.8,0,1.5-0.7,1.5-1.5v-11c0-2.5-2.1-4.6-4.6-4.6s-4.6,2.1-4.6,4.6v11C88.6,160.2,89.3,160.8,90.1,160.8z
		 M91.6,148.3c0-0.9,0.7-1.6,1.6-1.6s1.6,0.7,1.6,1.6v9.5h-3.2V148.3z"/>
	<path d="M122,133.1c0.8,0,1.5-0.7,1.5-1.5v-11c0-2.5-2.1-4.6-4.6-4.6s-4.6,2.1-4.6,4.6v11c0,0.8,0.7,1.5,1.5,1.5H122z M117.3,120.6
		c0-0.9,0.7-1.6,1.6-1.6s1.6,0.7,1.6,1.6v9.5h-3.2V120.6z"/>
	<path d="M26.9,105.4h6.2c0.8,0,1.5-0.7,1.5-1.5V93c0-2.5-2.1-4.6-4.6-4.6s-4.6,2.1-4.6,4.6v11C25.4,104.8,26.1,105.4,26.9,105.4z
		 M28.4,93c0-0.9,0.7-1.6,1.6-1.6s1.6,0.7,1.6,1.6v9.5h-3.2V93z"/>
	<path d="M114.3,93v11c0,0.8,0.7,1.5,1.5,1.5h6.2c0.8,0,1.5-0.7,1.5-1.5V93c0-2.5-2.1-4.6-4.6-4.6S114.3,90.4,114.3,93z M120.5,93
		v9.5h-3.2V93c0-0.9,0.7-1.6,1.6-1.6S120.5,92.1,120.5,93z"/>
	<path d="M122,160.8c0.8,0,1.5-0.7,1.5-1.5v-11c0-2.5-2.1-4.6-4.6-4.6s-4.6,2.1-4.6,4.6v11c0,0.8,0.7,1.5,1.5,1.5H122z M117.3,148.3
		c0-0.9,0.7-1.6,1.6-1.6s1.6,0.7,1.6,1.6v9.5h-3.2V148.3z"/>
	<path d="M36.1,136.4H23.9c-0.8,0-1.5,0.7-1.5,1.5s0.7,1.5,1.5,1.5h12.2c0.8,0,1.5-0.7,1.5-1.5S36.9,136.4,36.1,136.4z"/>
	<path d="M36.1,164.1H23.9c-0.8,0-1.5,0.7-1.5,1.5s0.7,1.5,1.5,1.5h12.2c0.8,0,1.5-0.7,1.5-1.5S36.9,164.1,36.1,164.1z"/>
	<path d="M36.1,108.8H23.9c-0.8,0-1.5,0.7-1.5,1.5s0.7,1.5,1.5,1.5h12.2c0.8,0,1.5-0.7,1.5-1.5S36.9,108.8,36.1,108.8z"/>
	<path d="M125,136.4h-12.2c-0.8,0-1.5,0.7-1.5,1.5s0.7,1.5,1.5,1.5H125c0.8,0,1.5-0.7,1.5-1.5S125.9,136.4,125,136.4z"/>
	<path d="M125,164.1h-12.2c-0.8,0-1.5,0.7-1.5,1.5s0.7,1.5,1.5,1.5H125c0.8,0,1.5-0.7,1.5-1.5S125.9,164.1,125,164.1z"/>
	<path d="M111.3,110.3c0,0.8,0.7,1.5,1.5,1.5H125c0.8,0,1.5-0.7,1.5-1.5s-0.7-1.5-1.5-1.5h-12.2C112,108.8,111.3,109.5,111.3,110.3z
		"/>
</g>
<g>
	<g>
		<path d="M-431.4-196.1c-0.4,0-0.8-0.1-1-0.4c-0.6-0.6-0.6-1.5,0-2.1c0.3-0.3,25.7-26.5,61.8-52.4c33.4-23.9,83-52.5,129.8-52.5
			s96.4,28.5,129.8,52.5c36.1,25.9,61.5,52.1,61.8,52.4c0.6,0.6,0.6,1.5,0,2.1c-0.6,0.6-1.5,0.6-2.1,0c-0.3-0.3-25.5-26.3-61.4-52.1
			c-33-23.7-82-51.9-128-51.9c-46,0-95,28.2-128,51.9c-35.9,25.7-61.1,51.8-61.4,52C-430.6-196.3-431-196.1-431.4-196.1z"/>
	</g>
	<g>
		<path d="M-235.6-300.6h-9.9c-0.8,0-1.5-0.7-1.5-1.5v-9.9c0-0.8,0.7-1.5,1.5-1.5h9.9c0.8,0,1.5,0.7,1.5,1.5v9.9
			C-234.1-301.2-234.7-300.6-235.6-300.6z M-244-303.6h6.9v-6.9h-6.9V-303.6z"/>
	</g>
	<g>
		<path d="M-235.6-310.5h-9.9c-0.8,0-1.5-0.7-1.5-1.5v-9.9c0-0.8,0.7-1.5,1.5-1.5h9.9c0.8,0,1.5,0.7,1.5,1.5v9.9
			C-234.1-311.1-234.7-310.5-235.6-310.5z M-244-313.5h6.9v-6.9h-6.9V-313.5z"/>
	</g>
	<g>
		<path d="M-235.6-320.4h-9.9c-0.8,0-1.5-0.7-1.5-1.5v-9.9c0-0.8,0.7-1.5,1.5-1.5h9.9c0.8,0,1.5,0.7,1.5,1.5v9.9
			C-234.1-321-234.7-320.4-235.6-320.4z M-244-323.4h6.9v-6.9h-6.9V-323.4z"/>
	</g>
	<g>
		<path d="M-225.7-320.4h-9.9c-0.8,0-1.5-0.7-1.5-1.5v-9.9c0-0.8,0.7-1.5,1.5-1.5h9.9c0.8,0,1.5,0.7,1.5,1.5v9.9
			C-224.2-321-224.8-320.4-225.7-320.4z M-234.1-323.4h6.9v-6.9h-6.9V-323.4z"/>
	</g>
	<g>
		<path d="M-245.5-320.4h-9.9c-0.8,0-1.5-0.7-1.5-1.5v-9.9c0-0.8,0.7-1.5,1.5-1.5h9.9c0.8,0,1.5,0.7,1.5,1.5v9.9
			C-244-321-244.6-320.4-245.5-320.4z M-253.9-323.4h6.9v-6.9h-6.9V-323.4z"/>
	</g>
	<g>
		<path d="M-235.6-330.3h-9.9c-0.8,0-1.5-0.7-1.5-1.5v-9.9c0-0.8,0.7-1.5,1.5-1.5h9.9c0.8,0,1.5,0.7,1.5,1.5v9.9
			C-234.1-330.9-234.7-330.3-235.6-330.3z M-244-333.3h6.9v-6.9h-6.9V-333.3z"/>
	</g>
</g>
<g>
	<g>
		<path d="M393.1,102.1c-29.3-17.2-64.2-32-97.6-32c-46,0-95,28.2-128,51.9c-14.3,10.3-27,20.6-37,29.3l-0.2-3.8
			c9.8-8.4,21.8-18.2,35.4-27.9c33.4-23.9,83-52.5,129.8-52.5c33.5,0,68.5,14.7,98,31.8L393.1,102.1z"/>
		<path d="M414.7,112.2c3.7,2.5,7.2,4.9,10.6,7.4c18,12.9,33.4,26,44.3,35.8l-3.7,0.7c-10.7-9.6-25.4-21.9-42.4-34.1
			c-3.2-2.3-6.6-4.7-10.1-7L414.7,112.2z"/>
	</g>
	<g>
		<path d="M300.8,70.1h-9.9c-0.8,0-1.5-0.7-1.5-1.5v-9.9c0-0.8,0.7-1.5,1.5-1.5h9.9c0.8,0,1.5,0.7,1.5,1.5v9.9
			C302.3,69.4,301.7,70.1,300.8,70.1z M292.4,67.1h6.9v-6.9h-6.9V67.1z"/>
	</g>
	<g>
		<path d="M300.8,60.2h-9.9c-0.8,0-1.5-0.7-1.5-1.5v-9.9c0-0.8,0.7-1.5,1.5-1.5h9.9c0.8,0,1.5,0.7,1.5,1.5v9.9
			C302.3,59.5,301.7,60.2,300.8,60.2z M292.4,57.2h6.9v-6.9h-6.9V57.2z"/>
	</g>
	<g>
		<path d="M300.8,50.3h-9.9c-0.8,0-1.5-0.7-1.5-1.5v-9.9c0-0.8,0.7-1.5,1.5-1.5h9.9c0.8,0,1.5,0.7,1.5,1.5v9.9
			C302.3,49.6,301.7,50.3,300.8,50.3z M292.4,47.3h6.9v-6.9h-6.9V47.3z"/>
	</g>
	<g>
		<path d="M310.7,50.3h-9.9c-0.8,0-1.5-0.7-1.5-1.5v-9.9c0-0.8,0.7-1.5,1.5-1.5h9.9c0.8,0,1.5,0.7,1.5,1.5v9.9
			C312.2,49.6,311.6,50.3,310.7,50.3z M302.3,47.3h6.9v-6.9h-6.9V47.3z"/>
	</g>
	<g>
		<path d="M290.9,50.3H281c-0.8,0-1.5-0.7-1.5-1.5v-9.9c0-0.8,0.7-1.5,1.5-1.5h9.9c0.8,0,1.5,0.7,1.5,1.5v9.9
			C292.4,49.6,291.8,50.3,290.9,50.3z M282.5,47.3h6.9v-6.9h-6.9V47.3z"/>
	</g>
	<g>
		<path d="M300.8,40.4h-9.9c-0.8,0-1.5-0.7-1.5-1.5V29c0-0.8,0.7-1.5,1.5-1.5h9.9c0.8,0,1.5,0.7,1.5,1.5v9.9
			C302.3,39.7,301.7,40.4,300.8,40.4z M292.4,37.4h6.9v-6.9h-6.9V37.4z"/>
	</g>
</g>
<path d="M369.1-217.7c0-7-5.7-12.7-12.7-12.7c-7,0-12.7,5.7-12.7,12.7c0,6.5,4.9,11.8,11.2,12.6v7.5c0,0.8,0.7,1.5,1.5,1.5
	s1.5-0.7,1.5-1.5v-7.5C364.2-205.9,369.1-211.2,369.1-217.7z M357.9-208.1v-7.1l3.6-3.6c0.6-0.6,0.6-1.5,0-2.1
	c-0.6-0.6-1.5-0.6-2.1,0l-1.5,1.5v-1.7c0-0.8-0.7-1.5-1.5-1.5s-1.5,0.7-1.5,1.5v6.5l-1.6-1.6c-0.6-0.6-1.5-0.6-2.1,0
	c-0.6,0.6-0.6,1.5,0,2.1l3.7,3.7v2.4c-4.6-0.7-8.2-4.7-8.2-9.6c0-5.3,4.3-9.7,9.7-9.7c5.3,0,9.7,4.3,9.7,9.7
	C366.1-212.9,362.6-208.9,357.9-208.1z"/>
<path d="M229.5,173.2c0-7-5.7-12.7-12.7-12.7c-7,0-12.7,5.7-12.7,12.7c0,6.5,4.9,11.8,11.2,12.6v7.5c0,0.8,0.7,1.5,1.5,1.5
	s1.5-0.7,1.5-1.5v-7.5C224.6,185,229.5,179.7,229.5,173.2z M218.3,182.7v-7.1l3.6-3.6c0.6-0.6,0.6-1.5,0-2.1c-0.6-0.6-1.5-0.6-2.1,0
	l-1.5,1.5v-1.7c0-0.8-0.7-1.5-1.5-1.5s-1.5,0.7-1.5,1.5v6.5l-1.6-1.6c-0.6-0.6-1.5-0.6-2.1,0c-0.6,0.6-0.6,1.5,0,2.1l3.7,3.7v2.4
	c-4.6-0.7-8.2-4.7-8.2-9.6c0-5.3,4.3-9.7,9.7-9.7c5.3,0,9.7,4.3,9.7,9.7C226.5,178,222.9,182,218.3,182.7z"/>
<path d="M554.5,173.2c0-7-5.7-12.7-12.7-12.7c-7,0-12.7,5.7-12.7,12.7c0,6.5,4.9,11.8,11.2,12.6v7.5c0,0.8,0.7,1.5,1.5,1.5
	s1.5-0.7,1.5-1.5v-7.5C549.6,185,554.5,179.7,554.5,173.2z M543.3,182.7v-7.1l3.6-3.6c0.6-0.6,0.6-1.5,0-2.1c-0.6-0.6-1.5-0.6-2.1,0
	l-1.5,1.5v-1.7c0-0.8-0.7-1.5-1.5-1.5s-1.5,0.7-1.5,1.5v6.5l-1.6-1.6c-0.6-0.6-1.5-0.6-2.1,0c-0.6,0.6-0.6,1.5,0,2.1l3.7,3.7v2.4
	c-4.6-0.7-8.2-4.7-8.2-9.6c0-5.3,4.3-9.7,9.7-9.7c5.3,0,9.7,4.3,9.7,9.7C551.5,178,547.9,182,543.3,182.7z"/>
<path d="M25.4,173.2c0-7-5.7-12.7-12.7-12.7c-7,0-12.7,5.7-12.7,12.7c0,6.5,4.9,11.8,11.2,12.6v7.5c0,0.8,0.7,1.5,1.5,1.5
	s1.5-0.7,1.5-1.5v-7.5C20.5,185,25.4,179.7,25.4,173.2z M14.2,182.7v-7.1l3.6-3.6c0.6-0.6,0.6-1.5,0-2.1c-0.6-0.6-1.5-0.6-2.1,0
	l-1.5,1.5v-1.7c0-0.8-0.7-1.5-1.5-1.5s-1.5,0.7-1.5,1.5v6.5l-1.6-1.6c-0.6-0.6-1.5-0.6-2.1,0c-0.6,0.6-0.6,1.5,0,2.1l3.7,3.7v2.4
	C6.6,182,3,178,3,173.2c0-5.3,4.3-9.7,9.7-9.7c5.3,0,9.7,4.3,9.7,9.7C22.4,178,18.8,182,14.2,182.7z"/>
<g>
	<path d="M833.9-239.4C833.9-239.4,833.9-239.4,833.9-239.4c-0.5,0-0.9,0-1.3,0.1c-0.1,0-0.2,0-0.3,0c-0.4,0-0.9,0.1-1.3,0.2l0,0
		c-0.5,0.1-0.9,0.2-1.4,0.3c0,0-0.1,0-0.1,0c-0.5,0.1-0.9,0.3-1.4,0.5c-3.7-6.2-10.3-10-17.6-10c-11.3,0-20.5,9.2-20.5,20.5
		s9.2,20.5,20.5,20.5h23.4c8.8,0,16-7.2,16-16S842.7-239.4,833.9-239.4z M833.9-210.3h-23.4c-9.6,0-17.5-7.8-17.5-17.5
		s7.8-17.5,17.5-17.5c6.1,0,11.7,3.2,14.9,8.4c-1.9,1.2-3.5,2.7-4.8,4.6c-0.5,0.7-0.3,1.6,0.4,2.1c0.7,0.5,1.6,0.3,2.1-0.4
		c1.3-1.9,3.1-3.4,5.1-4.4c0.4-0.2,0.8-0.4,1.3-0.5c0.1,0,0.3-0.1,0.4-0.1c0.3-0.1,0.7-0.2,1-0.3c0.3-0.1,0.6-0.1,0.9-0.2
		c0.2,0,0.4-0.1,0.6-0.1c0.5-0.1,1-0.1,1.6-0.1c7.2,0,13,5.9,13,13C846.9-216.1,841.1-210.3,833.9-210.3z"/>
	<path d="M798.8-294.3h29.1c8.3,0,15.1-6.8,15.1-15.1s-6.8-15.1-15.1-15.1c-4.8,0-9.2,2.2-12,6c0,0,0,0,0,0
		c-0.4-0.2-0.9-0.4-1.3-0.6c0,0-0.1,0-0.1,0c-0.4-0.1-0.8-0.3-1.3-0.4c0,0-0.1,0-0.1,0c-0.4-0.1-0.9-0.2-1.3-0.2c-0.1,0-0.2,0-0.3,0
		c-0.4,0-0.9-0.1-1.3-0.1c-4.5,0-8.6,2.3-10.9,6.2c-0.1,0-0.2,0-0.3,0c-0.7,0-1.3,0.1-1.9,0.2c-4.4,0.9-7.7,4.8-7.7,9.5v0v0
		C789.1-298.6,793.4-294.3,798.8-294.3z M798.8-310.7c0.2,0,0.3,0,0.5,0c0.1,0,0.3,0,0.5,0.1c0,0,0,0,0,0c1.4,0.2,2.7,0.9,3.7,1.9
		c0.6,0.6,1.5,0.6,2.1,0c0.6-0.6,0.6-1.5,0-2.1c-1-1-2.1-1.7-3.3-2.2c1.8-2.4,4.6-3.8,7.7-3.8c0.5,0,1,0,1.4,0.1
		c0.4,0.1,0.8,0.2,1.1,0.3c0.1,0,0.2,0,0.3,0.1c0.9,0.3,1.8,0.7,2.6,1.2c0,0,0,0,0,0c1.6,1,2.8,2.5,3.6,4.3c0.2,0.6,0.8,0.9,1.4,0.9
		c0.2,0,0.4,0,0.6-0.1c0.8-0.3,1.1-1.2,0.8-2c-0.8-1.9-2-3.5-3.5-4.7c2.3-2.9,5.7-4.7,9.5-4.7c6.7,0,12.1,5.4,12.1,12.1
		c0,6.7-5.4,12.1-12.1,12.1h-29.1c-3.7,0-6.7-3-6.7-6.7c0-3.5,2.6-6.3,6-6.7C798.3-310.6,798.5-310.7,798.8-310.7z"/>
</g>
<path d="M726.6-215.9h-4.8v-1.9c0-0.8-0.7-1.5-1.5-1.5s-1.5,0.7-1.5,1.5v3.4v7.5v9.2c0,0.8,0.7,1.5,1.5,1.5s1.5-0.7,1.5-1.5v-7.7
	h4.8c0.8,0,1.5-0.7,1.5-1.5v-7.5C728.1-215.2,727.5-215.9,726.6-215.9z M725.1-208.3h-3.3v-4.5h3.3V-208.3z"/>
<path d="M272.2,175h-4.8v-1.9c0-0.8-0.7-1.5-1.5-1.5s-1.5,0.7-1.5,1.5v3.4v7.5v9.2c0,0.8,0.7,1.5,1.5,1.5s1.5-0.7,1.5-1.5v-7.7h4.8
	c0.8,0,1.5-0.7,1.5-1.5v-7.5C273.7,175.7,273,175,272.2,175z M270.7,182.5h-3.3V178h3.3V182.5z"/>
<g>
	<path d="M-560.3-249.2c-6.8-1.5-13.6-2.9-20.5-4.2v-59.9c5.4,5.2,11.8,10.7,19,16.2c0.3,0.2,0.6,0.3,0.9,0.3c0.5,0,0.9-0.2,1.2-0.6
		c0.5-0.7,0.4-1.6-0.3-2.1c-28.4-21.5-42.7-43.6-42.8-43.8c0,0,0,0,0,0c0,0,0,0,0,0c0,0,0,0,0,0c0,0-0.1-0.1-0.1-0.1
		c0,0,0-0.1-0.1-0.1c0,0,0,0,0,0c0,0,0,0,0,0c0,0,0,0,0,0c0,0,0,0,0,0c0,0,0,0,0,0c0,0,0,0,0,0c0,0,0,0-0.1-0.1c0,0,0,0,0,0
		c0,0,0,0,0,0c0,0,0,0,0,0c0,0-0.1,0-0.1-0.1c0,0-0.1-0.1-0.1-0.1c0,0,0,0,0,0c0,0,0,0-0.1,0c0,0,0,0-0.1,0c0,0-0.1,0-0.1,0
		c0,0,0,0,0,0c0,0,0,0-0.1,0c0,0,0,0,0,0c0,0-0.1,0-0.1,0c0,0,0,0,0,0l0,0l0,0c0,0,0,0-0.1,0c0,0,0,0-0.1,0c0,0,0,0,0,0
		c0,0-0.1,0-0.1,0c0,0,0,0,0,0c0,0,0,0,0,0c0,0-0.1,0-0.1,0c0,0-0.1,0-0.1,0c0,0,0,0,0,0c0,0,0,0-0.1,0c0,0,0,0,0,0c0,0,0,0-0.1,0
		c0,0,0,0,0,0c0,0-0.1,0-0.1,0c0,0,0,0,0,0c0,0,0,0,0,0c0,0,0,0,0,0c0,0-0.1,0.1-0.1,0.1c0,0,0,0,0,0c0,0-0.1,0-0.1,0.1c0,0,0,0,0,0
		c0,0,0,0,0,0c0,0,0,0,0,0c0,0,0,0,0,0c-0.2,0.2-8,8.8-21.6,17.9c0,0,0,0,0,0c-15.7,10.6-39.1,21.9-67.3,21.9c0,0,0,0,0,0l0,0
		c-48.8,0-83.4-34.1-88.3-39.2c-0.1-0.4-0.4-0.8-0.9-1c-0.2-0.1-0.5-0.1-0.7-0.1c0,0,0,0,0,0c0,0,0,0-0.1,0c0,0,0,0,0,0c0,0,0,0,0,0
		l0,0c0,0,0,0,0,0c0,0-0.1,0-0.1,0c-0.1,0-0.1,0-0.2,0c0,0,0,0,0,0c0,0-0.1,0-0.1,0c0,0,0,0,0,0c0,0,0,0-0.1,0c0,0-0.1,0-0.1,0h0
		c0,0,0,0,0,0c0,0,0,0,0,0c0,0,0,0-0.1,0c-0.1,0-0.1,0.1-0.2,0.1c0,0,0,0,0,0c0,0-0.1,0.1-0.1,0.1c0,0,0,0,0,0c0,0,0,0,0,0
		c0,0,0,0,0,0c0,0,0,0-0.1,0c0,0,0,0,0,0c0,0-0.1,0.1-0.1,0.1c0,0-0.1,0.1-0.1,0.1c0,0,0,0,0,0c0,0,0,0,0,0
		c-0.1,0.2-14.4,22.3-42.8,43.8c-0.7,0.5-0.8,1.4-0.3,2.1c0.3,0.4,0.7,0.6,1.2,0.6c0.3,0,0.6-0.1,0.9-0.3c7.3-5.5,13.6-11,19-16.2
		v59.9c-6.9,1.3-13.7,2.7-20.5,4.2c-0.8,0.2-1.3,1-1.1,1.8c0.2,0.7,0.8,1.2,1.5,1.2c0.1,0,0.2,0,0.3,0c11.9-2.7,23.9-5,36-6.9
		l-3.8,24.5c-2.5-1.4-5.3-2.7-9-2.7c-4.2,0-7.1,1.7-10,3.3c-3.1,1.8-6.3,3.6-11.7,3.6c-0.8,0-1.5,0.7-1.5,1.5s0.7,1.5,1.5,1.5
		c6.2,0,9.9-2.1,13.2-4c2.7-1.6,5-2.9,8.5-2.9c3.4,0,5.8,1.4,8.5,2.9c0.3,0.1,0.5,0.3,0.8,0.5c0,0,0,0,0,0c3.1,1.8,6.7,3.6,12.3,3.6
		c3.6,0,6.3-0.7,8.6-1.7c0,0,0,0,0,0c1.7-0.7,3.1-1.5,4.5-2.3c2.7-1.6,5-2.9,8.5-2.9c3.4,0,5.8,1.4,8.5,2.9c3.3,1.9,7,4,13.1,4
		c6.2,0,9.9-2.1,13.2-4c2.7-1.6,5-2.9,8.5-2.9c3.4,0,5.8,1.4,8.5,2.9c3.3,1.9,7,4,13.1,4c6.2,0,9.9-2.1,13.2-4
		c2.7-1.6,5-2.9,8.5-2.9c3.4,0,5.8,1.4,8.5,2.9c3.3,1.9,7,4,13.1,4c6.2,0,9.9-2.1,13.2-4c2.7-1.6,5-2.9,8.5-2.9
		c3.4,0,5.8,1.4,8.5,2.9c2.2,1.3,4.7,2.6,7.9,3.4c0.1,0,0.2,0.1,0.3,0.1c0,0,0.1,0,0.1,0c1.4,0.3,3,0.5,4.8,0.5
		c6.2,0,9.9-2.1,13.2-4c2.7-1.6,5-2.9,8.5-2.9c3.4,0,5.8,1.4,8.5,2.9c3.3,1.9,7,4,13.1,4c0.8,0,1.5-0.7,1.5-1.5s-0.7-1.5-1.5-1.5
		c-5.3,0-8.5-1.8-11.6-3.6c-2.8-1.6-5.8-3.3-10-3.3c-2.1,0-4,0.4-5.6,1.1l-3.5-22.9c12,1.9,24,4.2,35.8,6.9c0.1,0,0.2,0,0.3,0
		c0.7,0,1.3-0.5,1.5-1.2C-559-248.2-559.5-249-560.3-249.2z M-598-256.4c-0.2-0.1-0.4-0.1-0.6-0.1c-0.3,0-0.5-0.1-0.8-0.1l15.7-29.2
		v31.9C-588.5-254.8-593.2-255.6-598-256.4z M-624.3-260v-25.7l15.4,27.6c0,0-0.1,0-0.1,0C-614.1-258.8-619.2-259.4-624.3-260z
		 M-694-264C-694-264-694-264-694-264L-694-264c-2.4,0-4.8,0-7.2,0l7.2-15.1l7.2,15.1C-689.2-263.9-691.6-264-694-264z M-778.9-258
		C-779-258-779-258-778.9-258l15.3-27.7v25.7C-768.7-259.4-773.8-258.8-778.9-258z M-694-300.6L-694-300.6
		C-694-300.6-694-300.6-694-300.6c2.4,0,4.8-0.1,7.1-0.2L-694-286l-7.1-14.9C-698.7-300.7-696.4-300.6-694-300.6z M-624.2-291.6
		l18.7-43.6v77.2L-624.2-291.6z M-602.5-335.1l18.4,43.5l-18.4,34.2V-335.1z M-624.3-298.8v-24.7c6.9-4.7,12.3-9.3,16-12.6
		L-624.3-298.8z M-627.3-263.5l-16-23.5l16-31.1V-263.5z M-643.6-293.1v-19.3c5-2.4,9.7-5,13.9-7.6L-643.6-293.1z M-646.6-267.8
		l-7.6-17.6l7.6-19.7V-267.8z M-655.9-289.4l-6.8-15.8c5.2-1.5,10.2-3.4,14.8-5.4L-655.9-289.4z M-675.4-287.4l-6.7-13.9
		c5.1-0.6,10-1.5,14.7-2.6L-675.4-287.4z M-666.1-299.6v31.3l-7.6-15.7L-666.1-299.6z M-685.9-295.9v26.8l-6.4-13.4L-685.9-295.9z
		 M-695.6-282.5L-702-269v-26.8L-695.6-282.5z M-712.5-287.4l-8-16.5c4.7,1.2,9.6,2.1,14.7,2.6L-712.5-287.4z M-714.2-284l-7.6,15.7
		v-31.3L-714.2-284z M-741.3-305.2l7.6,19.7l-7.6,17.6V-305.2z M-732.1-289.4l-8.1-21.1c4.7,2,9.6,3.9,14.8,5.4L-732.1-289.4z
		 M-744.3-293.1l-13.9-26.9c4.2,2.6,8.8,5.2,13.9,7.6V-293.1z M-760.6-318.1l16,31.1l-16,23.5V-318.1z M-763.6-298.8l-16-37.3
		c3.7,3.3,9.1,7.9,16,12.6V-298.8z M-782.5-258v-77.2l18.7,43.6L-782.5-258z M-785.5-257.4l-18.4-34.2l18.4-43V-257.4z M-744.3-282
		v20.2c-4.9,0.4-9.8,0.9-14.7,1.4L-744.3-282z M-724.8-298.8v35.6c-5.2,0.3-10.5,0.6-15.7,1L-724.8-298.8z M-705-296v32.1
		c-5.3,0.1-10.6,0.3-15.8,0.5L-705-296z M-682.9-263.8V-296l15.8,32.6C-672.4-263.6-677.6-263.7-682.9-263.8z M-663.1-298.8
		l15.7,36.6c-5.2-0.4-10.5-0.7-15.7-1V-298.8z M-643.6-261.9V-282l14.7,21.6C-633.8-261-638.7-261.5-643.6-261.9z M-583.7-316.2
		v17.7l-14-33.2C-594.3-327.4-589.6-322.1-583.7-316.2z M-789.7-332.2l-14.5,33.8v-17.8C-798.1-322.3-793.2-327.9-789.7-332.2z
		 M-804.2-285.8l15.7,29.2c-0.3,0-0.5,0.1-0.8,0.1c-0.1,0-0.3,0-0.4,0.1c-4.9,0.8-9.7,1.6-14.5,2.5V-285.8z M-780.1-254.8l0.8,5.6
		h-4.7c-0.8,0-1.5,0.7-1.5,1.5s0.7,1.5,1.5,1.5h5.2l1.8,12.2h-7.9c-0.8,0-1.5,0.7-1.5,1.5s0.7,1.5,1.5,1.5h8.3l0.8,5.5
		c-1.8,0.6-3.9,1.1-6.5,1.1c-4.3,0-7.2-1.2-9.9-2.6l1.7-10.8h6.4c0.8,0,1.5-0.7,1.5-1.5s-0.7-1.5-1.5-1.5h-5.9l2-12.8
		C-785.3-254.1-782.7-254.5-780.1-254.8z M-630.9-231.4c-4.2,0-7.1,1.7-10,3.3c-3.1,1.8-6.3,3.6-11.7,3.6c-5.3,0-8.5-1.8-11.6-3.6
		c-2.8-1.6-5.8-3.3-10-3.3c-4.2,0-7.1,1.7-10,3.3c-3.1,1.8-6.3,3.6-11.7,3.6c-5.3,0-8.5-1.8-11.6-3.6c-2.8-1.6-5.8-3.3-10-3.3
		c-4.2,0-7.1,1.7-10,3.3c-3.1,1.8-6.3,3.6-11.7,3.6c-5.3,0-8.5-1.8-11.6-3.6c-2.8-1.6-5.8-3.3-10-3.3c-4.2,0-7.1,1.7-10,3.3
		c-0.8,0.4-1.5,0.9-2.3,1.3l-4.3-28.5c27.5-3.8,55.3-5.7,83.2-5.7l0,0c0,0,0,0,0,0c27.9,0,55.8,1.9,83.3,5.7l-4.5,29.9
		c-2.2-0.7-3.9-1.7-5.7-2.7C-623.7-229.7-626.7-231.4-630.9-231.4z M-597.9-240.9h-5.9c-0.8,0-1.5,0.7-1.5,1.5s0.7,1.5,1.5,1.5h6.4
		l1.4,8.9c-0.5,0.3-1,0.6-1.5,0.9c-3.1,1.8-6.3,3.6-11.7,3.6c-1.1,0-2-0.1-3-0.2l1-6.4h8.3c0.8,0,1.5-0.7,1.5-1.5s-0.7-1.5-1.5-1.5
		h-7.9l1.8-12.2h5.2c0.8,0,1.5-0.7,1.5-1.5s-0.7-1.5-1.5-1.5h-4.7l0.8-5.6c2.6,0.4,5.2,0.8,7.8,1.2L-597.9-240.9z"/>
	<path d="M-609.3-199.6c-5.3,0-8.5-1.8-11.6-3.6c-2.8-1.6-5.8-3.3-10-3.3c-4.2,0-7.1,1.7-10,3.3c-3.1,1.8-6.3,3.6-11.7,3.6
		c-5.3,0-8.5-1.8-11.6-3.6c-2.8-1.6-5.8-3.3-10-3.3c-4.2,0-7.1,1.7-10,3.3c-3.1,1.8-6.3,3.6-11.7,3.6c-5.3,0-8.5-1.8-11.6-3.6
		c-2.8-1.6-5.8-3.3-10-3.3c-4.2,0-7.1,1.7-10,3.3c-3.1,1.8-6.3,3.6-11.7,3.6c-5.3,0-8.5-1.8-11.6-3.6c-2.8-1.6-5.8-3.3-10-3.3
		c-4.2,0-7.1,1.7-10,3.3c-3.1,1.8-6.3,3.6-11.7,3.6c-0.8,0-1.5,0.7-1.5,1.5s0.7,1.5,1.5,1.5c6.2,0,9.9-2.1,13.2-4
		c2.7-1.6,5-2.9,8.5-2.9c3.4,0,5.8,1.4,8.5,2.9c3.3,1.9,7,4,13.1,4c6.2,0,9.9-2.1,13.2-4c2.7-1.6,5-2.9,8.5-2.9
		c3.4,0,5.8,1.4,8.5,2.9c3.3,1.9,7,4,13.1,4c6.2,0,9.9-2.1,13.2-4c2.7-1.6,5-2.9,8.5-2.9c3.4,0,5.8,1.4,8.5,2.9c3.3,1.9,7,4,13.1,4
		c6.2,0,9.9-2.1,13.2-4c2.7-1.6,5-2.9,8.5-2.9c3.4,0,5.8,1.4,8.5,2.9c3.3,1.9,7,4,13.1,4c0.8,0,1.5-0.7,1.5-1.5
		S-608.5-199.6-609.3-199.6z"/>
</g>
<g>
	<path d="M374.4,106.9v17.7l-14-33.2C363.8,95.7,368.5,101.1,374.4,106.9z M333.8,99.6c6.9-4.7,12.3-9.3,16-12.6l-16,37.3V99.6z
		 M194.5,163.2c-5.1,0.6-10.2,1.2-15.3,1.9h-0.1l15.4-27.7V163.2z M213.8,161.3c-4.9,0.4-9.8,0.9-14.7,1.4l14.7-21.6V161.3z
		 M264.2,159.2c-2.4,0-4.8,0-7.2,0l7.2-15.1l7.2,15.1C269,159.2,266.6,159.2,264.2,159.2z M330.8,159.6l-16-23.5l16-31.1V159.6z
		 M314.5,110.7c5-2.4,9.7-5,13.9-7.6l-13.9,26.9V110.7z M314.5,141.1l14.7,21.6c-4.9-0.5-9.8-1-14.7-1.4V141.1z M311.5,155.3
		l-7.5-17.6l7.5-19.7V155.3z M310.4,112.6l-8.1,21.1l-6.8-15.8C300.8,116.5,305.7,114.6,310.4,112.6z M295,124.4l15.7,36.6
		c-5.2-0.4-10.5-0.7-15.7-1V124.4z M292,154.9l-7.6-15.7l7.6-15.6V154.9z M290.7,119.3l-8,16.5l-6.7-13.9
		C281.1,121.3,286,120.4,290.7,119.3z M275.2,127.2l15.8,32.6c-5.3-0.2-10.6-0.4-15.8-0.5V127.2z M272.2,154.1l-6.4-13.4l6.4-13.4
		V154.1z M264.2,122.6c2.4,0,4.8-0.1,7.1-0.2l-7.1,14.9l-7.1-14.9C259.4,122.5,261.8,122.6,264.2,122.6z M256.1,127.3l6.4,13.4
		l-6.4,13.4V127.3z M253.1,159.3c-5.3,0.1-10.6,0.2-15.8,0.5l15.8-32.6V159.3z M252.3,121.9l-6.7,13.9l-8-16.5
		C242.3,120.4,247.2,121.3,252.3,121.9z M236.3,123.6l7.6,15.6l-7.6,15.7V123.6z M233.3,160c-5.2,0.3-10.5,0.6-15.7,1l15.7-36.6V160
		z M232.8,118l-6.8,15.8l-8.1-21.1C222.6,114.6,227.6,116.5,232.8,118z M216.8,118l7.6,19.7l-7.6,17.6V118z M213.8,110.7v19.3
		l-13.9-26.9C204.1,105.7,208.8,108.3,213.8,110.7z M197.5,105l16,31.1l-16,23.5V105z M194.5,99.6v24.7l-16-37.3
		C182.2,90.4,187.6,94.9,194.5,99.6z M175.7,88l18.7,43.6l-18.7,33.6V88z M153.9,106.9c6.1-6.1,11-11.6,14.5-16l-14.5,33.8V106.9z
		 M172.7,88.6v77.2l-18.4-34.2L172.7,88.6z M153.9,169.2v-31.8l15.7,29.2c-0.3,0-0.5,0.1-0.8,0.1c-0.1,0-0.3,0-0.4,0.1
		C163.6,167.5,158.8,168.3,153.9,169.2z M184.8,193l-3.8-25.1c27.5-3.8,55.3-5.7,83.2-5.7c14,0,27.9,0.5,41.8,1.4
		c10.3,0.7,20.5,1.7,30.8,2.9c1.4,0.2,2.9,0.3,4.3,0.5c1.1-0.9,2.2-1.7,3.3-2.6c-1.4-0.2-2.8-0.4-4.2-0.5c-2.1-0.3-4.2-0.5-6.3-0.8
		v-25.7l12.1,21.8l1.5,2.7c0.8-0.7,1.6-1.3,2.3-1.9l-1.5-2.7L334,131.6L352.7,88v69.6c1-0.9,2-1.7,3-2.6V88.1l18.4,43.5l-0.3,0.5
		l0,0l-6.2,11.6c3.6-3.7,6.9-7.4,9.8-11.1v-22.8c2.3,2.2,4.7,4.4,7.4,6.7c0.8,0.7,1.6,1.4,2.4,2c0.5-0.9,1-1.8,1.5-2.7
		c-0.8-0.7-1.6-1.4-2.4-2.1c-20.4-17.9-30.7-33.8-30.8-34c0,0,0,0,0,0c0,0,0,0,0,0c0,0-0.1-0.1-0.1-0.1c0,0,0-0.1-0.1-0.1
		c0,0,0,0,0,0c0,0,0,0,0,0c0,0,0,0,0,0l0,0c0,0,0,0,0,0c0,0,0,0,0,0c0,0,0,0-0.1-0.1l0,0c0,0,0,0,0,0c0,0,0,0,0,0c0,0-0.1,0-0.1-0.1
		c0,0-0.1,0-0.1-0.1c0,0,0,0,0,0c0,0,0,0-0.1,0c0,0,0,0-0.1,0c0,0-0.1,0-0.1,0c0,0,0,0,0,0c0,0,0,0-0.1,0s0,0,0,0c0,0-0.1,0-0.2,0
		c0,0,0,0,0,0h-0.1c0,0,0,0-0.1,0c-0.1,0-0.1,0-0.2,0c0,0,0,0,0,0h0c0,0-0.1,0-0.1,0c0,0-0.1,0-0.1,0c0,0,0,0,0,0c0,0,0,0,0,0
		c0,0,0,0-0.1,0c0,0,0,0,0,0c0,0,0,0,0,0c0,0,0,0-0.1,0c0,0,0,0,0,0c0,0,0,0,0,0c0,0-0.1,0-0.1,0.1c0,0,0,0,0,0c0,0-0.1,0-0.1,0.1
		c0,0,0,0,0,0c0,0,0,0,0,0c0,0,0,0,0,0c0,0,0,0,0,0c-0.2,0.2-8,8.8-21.6,17.9l0,0c-15.7,10.6-39.1,21.9-67.3,21.9
		c-24.4,0-45.3-8.5-60.6-17.7c-15.4-9.2-25.2-19-27.7-21.5c-0.1-0.4-0.4-0.8-0.9-1c-0.2-0.1-0.5-0.1-0.7-0.1c0,0,0,0,0,0
		c0,0,0,0,0,0h-0.1c0,0-0.1,0-0.1,0c0,0-0.1,0-0.2,0c0,0,0,0,0,0c0,0-0.1,0-0.1,0c0,0,0,0,0,0c0,0,0,0-0.1,0c0,0-0.1,0-0.1,0
		c0,0,0,0,0,0c0,0,0,0-0.1,0c-0.1,0-0.1,0.1-0.2,0.1c0,0,0,0,0,0c0,0-0.1,0-0.1,0.1c0,0,0,0,0,0c0,0,0,0,0,0c0,0,0,0,0,0
		c0,0,0,0,0,0h0c0,0,0,0.1-0.1,0.1c0,0-0.1,0.1-0.1,0.1c0,0,0,0,0,0c-0.1,0.1-3.7,5.7-10.8,13.9c-7.1,8.2-17.8,19.1-32,29.9
		c-0.7,0.5-0.8,1.4-0.3,2.1c0.3,0.4,0.7,0.6,1.2,0.6c0.3,0,0.6-0.1,0.9-0.3c7.2-5.5,13.6-11,19-16.2v59.9
		c-6.8,1.3-13.6,2.7-20.4,4.2c-0.8,0.2-1.3,0.9-1.2,1.6c0.1,0.8,0.8,1.4,1.5,1.4c0.1,0,0.2,0,0.3,0c11.9-2.7,23.9-5,36-6.9l-3.6,23
		c-0.1,0.9,0.6,1.7,1.5,1.7l0,0c0.7,0,1.4-0.5,1.5-1.3l1.3-8.1h6.4c0.8,0,1.5-0.7,1.5-1.5c0-0.8-0.7-1.5-1.5-1.5h-5.9l2-12.8
		c2.6-0.4,5.2-0.8,7.8-1.2l0.8,5.6h-4.7c-0.8,0-1.5,0.7-1.5,1.5c0,0.8,0.7,1.5,1.5,1.5h5.2l1.8,12.2h-7.9c-0.8,0-1.5,0.7-1.5,1.5
		c0,0.8,0.7,1.5,1.5,1.5h8.3l0.2,1.3c0.1,0.7,0.7,1.3,1.5,1.3l0,0C184.2,194.7,184.9,193.9,184.8,193z"/>
</g>
</svg>
