<?xml version="1.0" encoding="utf-8"?>
<!-- Generator: Adobe Illustrator 21.1.0, SVG Export Plug-In . SVG Version: 6.00 Build 0)  -->
<svg version="1.1" id="Layer_1" xmlns="http://www.w3.org/2000/svg" xmlns:xlink="http://www.w3.org/1999/xlink" x="0px" y="0px"
	 viewBox="0 0 384 147" style="enable-background:new 0 0 384 147;" xml:space="preserve">
<g>
	<g>
		<path d="M1.5,147c-0.4,0-0.8-0.1-1-0.4c-0.6-0.6-0.6-1.5,0-2.1c0.3-0.3,25.7-26.5,61.8-52.4c33.4-23.9,83-52.5,129.8-52.5
			s96.4,28.5,129.8,52.5c36.1,25.9,61.5,52.1,61.8,52.4c0.6,0.6,0.6,1.5,0,2.1c-0.6,0.6-1.5,0.6-2.1,0c-0.3-0.3-25.5-26.3-61.4-52.1
			c-33-23.7-82-51.9-128-51.9c-46,0-95,28.2-128,51.9c-35.9,25.7-61.1,51.8-61.4,52C2.3,146.9,1.9,147,1.5,147z"/>
	</g>
	<g>
		<path d="M197.3,42.6h-9.9c-0.8,0-1.5-0.7-1.5-1.5v-9.9c0-0.8,0.7-1.5,1.5-1.5h9.9c0.8,0,1.5,0.7,1.5,1.5v9.9
			C198.8,41.9,198.1,42.6,197.3,42.6z M188.9,39.6h6.9v-6.9h-6.9V39.6z"/>
	</g>
	<g>
		<path d="M197.3,32.7h-9.9c-0.8,0-1.5-0.7-1.5-1.5v-9.9c0-0.8,0.7-1.5,1.5-1.5h9.9c0.8,0,1.5,0.7,1.5,1.5v9.9
			C198.8,32,198.1,32.7,197.3,32.7z M188.9,29.7h6.9v-6.9h-6.9V29.7z"/>
	</g>
	<g>
		<path d="M197.3,22.8h-9.9c-0.8,0-1.5-0.7-1.5-1.5v-9.9c0-0.8,0.7-1.5,1.5-1.5h9.9c0.8,0,1.5,0.7,1.5,1.5v9.9
			C198.8,22.1,198.1,22.8,197.3,22.8z M188.9,19.8h6.9v-6.9h-6.9V19.8z"/>
	</g>
	<g>
		<path d="M207.2,22.8h-9.9c-0.8,0-1.5-0.7-1.5-1.5v-9.9c0-0.8,0.7-1.5,1.5-1.5h9.9c0.8,0,1.5,0.7,1.5,1.5v9.9
			C208.7,22.1,208,22.8,207.2,22.8z M198.8,19.8h6.9v-6.9h-6.9V19.8z"/>
	</g>
	<g>
		<path d="M187.4,22.8h-9.9c-0.8,0-1.5-0.7-1.5-1.5v-9.9c0-0.8,0.7-1.5,1.5-1.5h9.9c0.8,0,1.5,0.7,1.5,1.5v9.9
			C188.9,22.1,188.2,22.8,187.4,22.8z M179,19.8h6.9v-6.9H179V19.8z"/>
	</g>
	<g>
		<path d="M197.3,12.9h-9.9c-0.8,0-1.5-0.7-1.5-1.5V1.5c0-0.8,0.7-1.5,1.5-1.5h9.9c0.8,0,1.5,0.7,1.5,1.5v9.9
			C198.8,12.2,198.1,12.9,197.3,12.9z M188.9,9.9h6.9V3h-6.9V9.9z"/>
	</g>
</g>
</svg>
