<?xml version="1.0" encoding="utf-8"?>
<!-- Generator: Adobe Illustrator 21.1.0, SVG Export Plug-In . SVG Version: 6.00 Build 0)  -->
<svg version="1.1" id="Layer_1" xmlns="http://www.w3.org/2000/svg" xmlns:xlink="http://www.w3.org/1999/xlink" x="0px" y="0px"
	 viewBox="0 0 53.8 30.1" style="enable-background:new 0 0 53.8 30.1;" xml:space="preserve">
<g>
	<path d="M9.7,30.1h29.1c8.3,0,15.1-6.8,15.1-15.1S47.1,0,38.7,0c-4.8,0-9.2,2.2-12,6c0,0,0,0,0,0c-0.4-0.2-0.9-0.4-1.3-0.6
		c0,0-0.1,0-0.1,0C24.9,5.2,24.5,5.1,24,5c0,0-0.1,0-0.1,0c-0.4-0.1-0.9-0.2-1.3-0.2c-0.1,0-0.2,0-0.3,0c-0.4,0-0.9-0.1-1.3-0.1
		c-4.5,0-8.6,2.3-10.9,6.2c-0.1,0-0.2,0-0.3,0c-0.7,0-1.3,0.1-1.9,0.2C3.3,11.9,0,15.8,0,20.5c0,0,0,0,0,0c0,0,0,0,0,0
		C0,25.8,4.3,30.1,9.7,30.1z M9.7,13.8c0.2,0,0.3,0,0.5,0c0.1,0,0.3,0,0.5,0.1c0,0,0,0,0,0c1.4,0.2,2.7,0.9,3.7,1.9
		c0.6,0.6,1.5,0.6,2.1,0c0.6-0.6,0.6-1.5,0-2.1c-1-1-2.1-1.7-3.3-2.2C15.1,9,17.9,7.6,21,7.6c0.5,0,1,0,1.4,0.1
		c0.4,0.1,0.8,0.2,1.1,0.3c0.1,0,0.2,0,0.3,0.1c0.9,0.3,1.8,0.7,2.6,1.2c0,0,0,0,0,0c1.6,1,2.8,2.5,3.6,4.3c0.2,0.6,0.8,0.9,1.4,0.9
		c0.2,0,0.4,0,0.6-0.1c0.8-0.3,1.1-1.2,0.8-2c-0.8-1.9-2-3.5-3.5-4.7C31.5,4.7,35,3,38.7,3c6.7,0,12.1,5.4,12.1,12.1
		c0,6.7-5.4,12.1-12.1,12.1H9.7c-3.7,0-6.7-3-6.7-6.7c0-3.5,2.6-6.3,6-6.7C9.2,13.8,9.5,13.8,9.7,13.8z"/>
</g>
</svg>
