<?xml version="1.0" encoding="utf-8"?>
<!-- Generator: Adobe Illustrator 21.1.0, SVG Export Plug-In . SVG Version: 6.00 Build 0)  -->
<svg version="1.1" id="Layer_1" xmlns="http://www.w3.org/2000/svg" xmlns:xlink="http://www.w3.org/1999/xlink" x="0px" y="0px"
	 viewBox="0 0 60 41" style="enable-background:new 0 0 60 41;" xml:space="preserve">
<g>
	<path d="M43.9,8.9C43.9,8.9,43.9,8.9,43.9,8.9c-0.5,0-0.9,0-1.3,0.1c-0.1,0-0.2,0-0.3,0c-0.4,0-0.9,0.1-1.3,0.2c0,0,0,0,0,0
		c-0.5,0.1-0.9,0.2-1.4,0.3c0,0-0.1,0-0.1,0C39,9.7,38.5,9.8,38.1,10C34.4,3.8,27.8,0,20.5,0C9.2,0,0,9.2,0,20.5S9.2,41,20.5,41
		h23.4c8.8,0,16-7.2,16-16S52.8,8.9,43.9,8.9z M43.9,38H20.5C10.8,38,3,30.1,3,20.5S10.8,3,20.5,3c6.1,0,11.7,3.2,14.9,8.4
		c-1.9,1.2-3.5,2.7-4.8,4.6c-0.5,0.7-0.3,1.6,0.4,2.1c0.7,0.5,1.6,0.3,2.1-0.4c1.3-1.9,3.1-3.4,5.1-4.4c0.4-0.2,0.8-0.4,1.3-0.5
		c0.1,0,0.3-0.1,0.4-0.1c0.3-0.1,0.7-0.2,1-0.3c0.3-0.1,0.6-0.1,0.9-0.2c0.2,0,0.4-0.1,0.6-0.1c0.5-0.1,1-0.1,1.6-0.1
		c7.2,0,13,5.9,13,13C57,32.1,51.1,38,43.9,38z"/>
</g>
</svg>
